<svg viewBox="0 0 20 20" xmlns="http://www.w3.org/2000/svg" xmlns:xlink="http://www.w3.org/1999/xlink" width="20.000000" height="20.000000" fill="none">
	<rect id="Add to Cart - Add Icon" width="20.000000" height="20.000000" x="0.000000" y="0.000000" fill="rgb(255,255,255)" fill-opacity="0" />
	<path id="Vector" d="M10 1.25C7.68807 1.27805 5.47873 2.20893 3.84383 3.84383C2.20893 5.47873 1.27805 7.68807 1.25 10C1.27805 12.3119 2.20893 14.5213 3.84383 16.1562C5.47873 17.7911 7.68807 18.7219 10 18.75C12.3119 18.7219 14.5213 17.7911 16.1562 16.1562C17.7911 14.5213 18.7219 12.3119 18.75 10C18.7219 7.68807 17.7911 5.47873 16.1562 3.84383C14.5213 2.20893 12.3119 1.27805 10 1.25ZM15 10.625L10.625 10.625L10.625 10.625L5 10.625L5 9.375L9.375 9.375L9.375  9.375L15 9.375L15 10.625Z" fill="rgb(255,255,255)" fill-rule="nonzero" />
	<path id="Vector" d="M15 10.625L10.625 10.625L10.625 15L9.375 15L9.375 10.625L5 10.625L5 9.375L9.375 9.375L9.375 5L10.625 5L10.625 9.375L15 9.375L15 10.625Z" fill-rule="nonzero" />
</svg>
